<?xml version="1.0" standalone="no"?>
<!DOCTYPE svg PUBLIC "-//W3C//DTD SVG 20010904//EN"
 "http://www.w3.org/TR/2001/REC-SVG-20010904/DTD/svg10.dtd">
<svg version="1.0" xmlns="http://www.w3.org/2000/svg"
 width="704.000000pt" height="704.000000pt" viewBox="0 0 704.000000 704.000000"
 preserveAspectRatio="xMidYMid meet">
<metadata>
Created by potrace 1.11, written by Peter Selinger 2001-2013
</metadata>
<g transform="translate(0.000000,704.000000) scale(0.100000,-0.100000)"
fill="#000000" stroke="none">
<path d="M3467 7018 c-20 -4 -55 -17 -78 -28 -26 -14 -622 -603 -1681 -1662
-1803 -1803 -1690 -1682 -1690 -1808 0 -126 -114 -4 1699 -1817 1544 -1543
1652 -1649 1702 -1667 66 -23 132 -24 202 -1 51 17 126 91 1689 1654 900 900
1648 1652 1662 1671 68 94 68 228 0 320 -34 45 -3247 3258 -3292 3292 -58 43
-142 61 -213 46z"/>
</g>
</svg>
